<svg width="16" height="16" viewBox="0 0 16 16" fill="none" xmlns="http://www.w3.org/2000/svg">
<path d="M11.5 4L9 6.5" stroke="#4E73DF" stroke-linecap="round" stroke-linejoin="round"/>
<path d="M10 7.5L10.3323 7.1677C10.7714 6.7286 11.3067 6.39777 11.8958 6.20139L12.5 6" stroke="#4E73DF" stroke-linecap="round" stroke-linejoin="round"/>
<path d="M8 5.5L8.3323 5.1677C8.7714 4.7286 9.10223 4.1933 9.29861 3.60418L9.5 3" stroke="#4E73DF" stroke-linecap="round" stroke-linejoin="round"/>
<path d="M10 9L4 13L6.5 6" stroke="#4E73DF" stroke-linecap="round" stroke-linejoin="round"/>
<path d="M7.5 10.5L5.5 9.5" stroke="#4E73DF" stroke-linecap="round" stroke-linejoin="round"/>
<path d="M6 8L9 9.5" stroke="#4E73DF" stroke-linecap="round" stroke-linejoin="round"/>
<path d="M6.5 6L10 9" stroke="#4E73DF" stroke-linecap="round" stroke-linejoin="round"/>
<circle cx="12.5" cy="7.5" r="0.5" fill="#4E73DF"/>
<circle cx="11.5" cy="2.5" r="0.5" fill="#4E73DF"/>
<path d="M7.5976 2.97396C7.76245 2.88996 7.93847 3.06598 7.85447 3.23083V3.23083C7.81691 3.30455 7.83109 3.39407 7.88959 3.45258V3.45258C8.02042 3.5834 7.9074 3.8052 7.72467 3.77625V3.77625C7.64295 3.76331 7.56219 3.80446 7.52463 3.87818V3.87818C7.44064 4.04303 7.19477 4.00409 7.16583 3.82135V3.82135C7.15289 3.73963 7.0888 3.67554 7.00708 3.6626V3.6626C6.82434 3.63366 6.7854 3.38779 6.95025 3.3038V3.3038C7.02397 3.26624 7.06512 3.18548 7.05217 3.10376V3.10376C7.02323 2.92102 7.24503 2.80801 7.37585 2.93883V2.93883C7.43436 2.99734 7.52388 3.01152 7.5976 2.97396V2.97396Z" fill="#4E73DF"/>
<path d="M12.974 4.23083C12.89 4.06598 13.066 3.88996 13.2308 3.97396V3.97396C13.3045 4.01152 13.3941 3.99734 13.4526 3.93884V3.93884C13.5834 3.80801 13.8052 3.92103 13.7763 4.10376V4.10376C13.7633 4.18548 13.8045 4.26624 13.8782 4.3038V4.3038C14.043 4.38779 14.0041 4.63366 13.8214 4.6626V4.6626C13.7396 4.67554 13.6755 4.73963 13.6626 4.82135V4.82135C13.6337 5.00409 13.3878 5.04303 13.3038 4.87818V4.87818C13.2662 4.80446 13.1855 4.76331 13.1038 4.77626V4.77626C12.921 4.8052 12.808 4.5834 12.9388 4.45258V4.45258C12.9973 4.39407 13.0115 4.30455 12.974 4.23083V4.23083Z" fill="#4E73DF"/>
</svg>
