<svg width="12" height="13" viewBox="0 0 12 13" fill="none" xmlns="http://www.w3.org/2000/svg">
<path d="M2.5 0.5V3.85995C2.5 6.01454 3.92831 7.90809 6 8.5C8.07169 7.90809 9.5 6.01454 9.5 3.85995V0.5H2.5Z" stroke="#4E73DF" stroke-linecap="round" stroke-linejoin="round"/>
<path d="M10 12.5H2V11H10V12.5Z" stroke="#4E73DF" stroke-linecap="round" stroke-linejoin="round"/>
<path d="M5.5 10.5V8.5H6.5V10.5" stroke="#4E73DF" stroke-linecap="round" stroke-linejoin="round"/>
<path d="M2.5 2H1.44387C0.922586 2 0.5 2.42259 0.5 2.94387C0.5 4.48769 1.43991 5.87596 2.87331 6.44932L3 6.5M9.5 2H10.5561C11.0774 2 11.5 2.42259 11.5 2.94387C11.5 4.48769 10.5601 5.87596 9.12669 6.44932L9 6.5" stroke="#4E73DF" stroke-linecap="round" stroke-linejoin="round"/>
</svg>
